<svg xmlns="http://www.w3.org/2000/svg" xmlns:xlink="http://www.w3.org/1999/xlink" width="0" height="0" style="display:none;"><symbol viewBox="0 0 24 24" id="upicon-custom-close-circle">
  <path d="M12 2C6.47 2 2 6.47 2 12s4.47 10 10 10 10-4.47 10-10S17.53 2 12 2zm5 13.59L15.59 17 12 13.41 8.41 17 7 15.59 10.59 12 7 8.41 8.41 7 12 10.59 15.59 7 17 8.41 13.41 12 17 15.59z"></path>
</symbol><symbol viewBox="0 0 24 24" id="upicon-custom-home">
  <path d="M10 20v-6h4v6h5v-8h3L12 3 2 12h3v8z"></path>
</symbol><symbol viewBox="0 0 1024 1024" id="upicon-custom-右箭头"><path d="M739.84 476.16l-384-384c-20.48-20.48-51.2-20.48-71.68 0-20.48 20.48-20.48 51.2 0 71.68L632.32 512 284.16 860.16c-20.48 20.48-20.48 51.2 0 71.68 10.24 10.24 23.04 15.36 35.84 15.36s25.6-5.12 35.84-15.36l384-384c20.48-20.48 20.48-51.2 0-71.68z" p-id="1055"></path></symbol><symbol viewBox="0 0 1024 1024" id="upicon-custom-店铺"><path d="M821.909333 85.333333c12.842667 0 22.485333 6.4 28.906667 16l105.962667 204.8c2.645333 5.226667 3.114667 19.050667 3.2 25.642667L960 418.133333c0 80-67.434667 147.2-147.733333 147.2h-41.749334c-48.170667 0-86.698667-16-112.405333-41.6-25.685333 28.8-70.634667 44.8-125.226667 44.8h-41.749333c-54.613333 0-99.562667-16-125.248-44.8-25.706667 28.8-64.234667 44.8-112.426667 44.8H211.754667C131.413333 568.533333 64 501.333333 64 421.333333v-81.28c0.042667-4.842667 0.32-17.706667 3.2-24.32l83.52-208c3.2-12.8 16.042667-22.4 28.885333-22.4h642.304z m-18.325333 64H202.944l-74.773333 186.24-0.106667 1.706667-0.064 2.773333v81.28c0 44.586667 38.741333 83.2 83.733333 83.2h41.749334c30.144 0 51.413333-8.554667 64.64-23.402666l47.765333-53.546667 47.744 53.546667c12.117333 13.589333 39.616 23.402667 77.504 23.402666h41.749333c37.866667 0 65.365333-9.813333 77.482667-23.402666l45.013333-50.474667 47.914667 47.744c14.293333 14.229333 37.12 22.933333 67.221333 22.933333h41.749334c45.013333 0 83.733333-38.613333 83.733333-83.2v-83.2l-0.021333-3.477333-0.170667-3.904L803.584 149.333333zM867.818667 600.64a32 32 0 0 1 32 32V832a96 96 0 0 1-96 96H221.141333a96 96 0 0 1-96-96v-199.36a32 32 0 0 1 64 0V832a32 32 0 0 0 32 32h582.677334a32 32 0 0 0 32-32v-199.36a32 32 0 0 1 32-32z" fill="#111111" p-id="2016"></path><path d="M910.506667 288v64H83.52v-64z" fill="#111111" p-id="2017"></path></symbol></svg>